<?xml version="1.0" encoding="UTF-8"?><svg id="a" xmlns="http://www.w3.org/2000/svg" viewBox="0 0 107.01 100.72"><defs><style>.b{fill:#fede55;}.c{fill:#fff;stroke-miterlimit:10;stroke-width:.75px;}.c,.d{stroke:#fff;}.d{fill:none;stroke-linecap:round;stroke-linejoin:round;stroke-width:3px;}</style></defs><path class="d" d="M90.58,23.54V9.75c0-4.56-3.69-8.25-8.25-8.25H9.75C5.19,1.5,1.5,5.19,1.5,9.75V90.97c0,4.56,3.69,8.25,8.25,8.25H82.33c4.56,0,8.25-3.69,8.25-8.25v-12.83"/><g><path class="b" d="M14.8,17.77l-.73-1.25c-.14-.24-.45-.32-.69-.18-.24,.14-.32,.44-.18,.68l.73,1.25c.09,.16,.26,.25,.44,.25,.09,0,.17-.02,.25-.07,.24-.14,.32-.44,.18-.68Z"/><path class="b" d="M14.6,9.83c-.24-.14-.55-.06-.69,.18l-2.26,3.87c-.09,.15-.09,.34,0,.5l.66,1.12c.09,.16,.26,.25,.44,.25,.09,0,.17-.02,.25-.07,.24-.14,.32-.44,.18-.68l-.51-.88,2.12-3.62c.14-.24,.06-.54-.18-.68Z"/><path class="b" d="M33.43,19.47l-3.24-5.54c-.09-.15-.26-.25-.44-.25h-6.16l-3.13-5.35c-.09-.15-.26-.25-.44-.25h-6.46c-.18,0-.35,.09-.44,.25l-3.24,5.54c-.09,.15-.09,.34,0,.5l3.24,5.55c.09,.15,.26,.25,.44,.25h6.16l3.13,5.35c.09,.15,.26,.25,.44,.25h6.46c.18,0,.35-.09,.44-.25l3.24-5.55c.09-.15,.09-.34,0-.5Zm-19.58-.29l-2.95-5.04,2.95-5.04h5.9l2.95,5.04-2.95,5.04h-5.9Zm15.62,5.56h-5.9l-2.95-5.04,2.95-5.04h5.9l2.95,5.04-2.95,5.04Z"/><path class="b" d="M22.4,26.78l-3.24-5.55c-.09-.15-.26-.25-.44-.25h-6.48c-.18,0-.35,.09-.44,.25l-3.24,5.55c-.09,.15-.09,.34,0,.5l3.24,5.54c.09,.15,.26,.25,.44,.25h6.48c.18,0,.35-.09,.44-.25l3.24-5.54c.09-.15,.09-.34,0-.5Zm-3.97,5.27h-5.9l-2.95-5.04,2.95-5.04h5.9l2.95,5.04-2.95,5.04Z"/></g><g><path class="b" d="M96.57,59.6c-.11,.37-.19,.71-.33,1.03-.32,.75-.65,1.48-1,2.21-.04,.09-.18,.18-.28,.21-1.57,.34-3.16,.54-4.77,.51-1.04-.01-2.08,0-3.11-.08-1.04-.09-2.07-.29-3.1-.45-.06,0-.13-.05-.16-.1-.6-1.03-1.04-2.13-1.37-3.34,4.71,.75,9.39,.76,14.13,0h0Z"/><path class="b" d="M83.3,58.36c.67-.65,1.26-1.33,1.69-2.13,.1-.18,.2-.37,.27-.56,.07-.19,.17-.26,.39-.26,1.85,0,3.7,0,5.54,0,.58,0,1.15,.03,1.73,.04,.04,0,.09,0,.13,0,.55-.02,.56-.03,.79,.45,.42,.89,1.02,1.65,1.76,2.32,.03,.03,.06,.06,.09,.09,0,.01,0,.03,.03,.09-4.15,.6-8.28,.59-12.42-.05h0Z"/><path class="b" d="M105.95,49.47c-.53,.07-1.02,.13-1.51,.19-.89,.11-1.77,.22-2.66,.32-.13,.01-.29-.02-.4-.08-2.43-1.5-4.84-3-7.27-4.51-.56-.35-1.15-.67-1.68-1.06-.33-.25-.55-.62-.83-.93l.05-.07c.24,.08,.49,.16,.73,.24,3.54,1.19,7.09,2.36,10.63,3.57,1.16,.39,2.07,1.14,2.78,2.1,.05,.07,.09,.14,.15,.24h0Z"/><path class="b" d="M87.39,43.31c-.34,.6-.78,1.02-1.34,1.37-2.81,1.73-5.61,3.48-8.41,5.22-.1,.06-.24,.11-.35,.1-1.35-.15-2.71-.32-4.06-.48-.05,0-.09-.02-.23-.06,.35-.39,.65-.76,.99-1.09,.69-.66,1.53-1.09,2.44-1.39,3.55-1.18,7.11-2.37,10.66-3.56,.09-.03,.17-.05,.3-.09h0Z"/><path class="b" d="M93.09,40.58c-.13,.46-.26,.92-.4,1.38-.06,.2-.17,.26-.4,.18-.76-.27-1.53-.5-2.28-.78-.34-.12-.65-.13-.99,0-.76,.27-1.52,.51-2.28,.77-.21,.07-.31,.06-.41-.15-1.03-2.07,.43-4.6,2.79-4.82,2.14-.2,3.93,1.37,3.91,3.4l.07,.02h0Z"/><path class="b" d="M72.01,53.39h.38c.97,0,1.94,0,2.91,0,.34,0,.61-.1,.84-.34,.48-.49,1-.96,1.49-1.45,.53-.55,1.22-.88,1.86-1.28,1.59-1.01,3.2-2,4.81-3,.06-.04,.11-.06,.21-.07-.22,.3-.44,.6-.66,.9-.84,1.14-1.69,2.29-2.54,3.42-.16,.21-.22,.44-.17,.68,.11,.6-.14,.98-.66,1.3-.53,.32-1.01,.72-1.51,1.08-.1,.07-.25,.13-.37,.13-1.99,0-3.99,0-5.98,.01-.2,0-.3-.06-.34-.25-.08-.36-.17-.72-.27-1.14h0Z"/><path class="b" d="M107.01,53.39c-.11,.45-.21,.86-.33,1.25-.02,.07-.18,.13-.28,.13-1.48,0-2.96,0-4.43,0-.45,0-.91-.01-1.37,0-.29,.01-.5-.07-.73-.24-.6-.46-1.22-.89-1.82-1.34-.09-.07-.13-.21-.17-.32-.03-.09-.02-.2,0-.3,.09-.69-.27-1.18-.69-1.67-.37-.43-.69-.91-1.03-1.37-.51-.68-1.01-1.37-1.51-2.05-.05-.07-.1-.15-.12-.26,.35,.22,.69,.44,1.04,.65,1.73,1.07,3.46,2.13,5.17,3.23,.41,.27,.75,.65,1.11,.99,.35,.33,.7,.66,1.04,1.01,.21,.21,.44,.29,.73,.29,1.01,0,2.01,0,3.02,0h.37Z"/><path class="b" d="M89.24,35.77c-.46,.11-.88,.21-1.31,.29-.07,.01-.19-.07-.24-.14-.52-.79-1.17-1.45-2-1.94-.73-.43-1.51-.7-2.36-.81-.17-.02-.25,0-.34,.16-.41,.75-1.07,1.14-1.94,1.12-.88-.02-1.51-.45-1.87-1.23-.47-.99,0-2.18,1.02-2.66,1.02-.48,2.27-.08,2.78,.9,.11,.21,.22,.29,.47,.33,2.53,.34,4.43,1.59,5.69,3.75,.05,.08,.08,.16,.11,.24Z"/><path class="b" d="M91.22,36.09c-.49-.1-.95-.2-1.49-.31,.25-.38,.47-.77,.74-1.13,1.31-1.69,3.07-2.64,5.24-2.88,.17-.02,.21-.1,.27-.22,.61-1.24,2.15-1.59,3.25-.74,.71,.55,.97,1.53,.61,2.37-.35,.82-1.23,1.34-2.14,1.25-.8-.07-1.36-.47-1.71-1.15-.07-.13-.14-.15-.28-.13-1.91,.27-3.37,1.2-4.39,2.78-.04,.05-.08,.11-.1,.15h0Z"/><path class="b" d="M93.09,54.08h-7.23c.11-.31,.21-.59,.31-.88,.27-.76,.55-1.52,.82-2.28,.06-.18,.15-.25,.34-.25,1.46,0,2.92,0,4.38,0,.09,0,.23,.07,.25,.14,.39,1.06,.76,2.12,1.13,3.18,0,.02,0,.05,0,.08h0Z"/><path class="b" d="M82.48,57.22v-.65c0-1.36,0-2.71,0-4.07,0-.14,.06-.31,.14-.43,1.53-2.09,3.07-4.17,4.61-6.25,.05-.06,.1-.13,.19-.16-.23,.66-.47,1.31-.7,1.97-.88,2.45-1.75,4.9-2.64,7.35-.29,.79-.77,1.46-1.38,2.06-.05,.05-.11,.09-.22,.19h0Z"/><path class="b" d="M91.63,45.64c.35,.47,.7,.94,1.05,1.41,1.1,1.49,2.2,2.98,3.29,4.47,.11,.15,.2,.34,.35,.46,.3,.25,.18,.58,.19,.86,.02,1.42,0,2.85,0,4.27,0,.01-.01,.03-.03,.06-.04-.02-.09-.04-.12-.07-.73-.72-1.29-1.53-1.58-2.5-.09-.32-.24-.62-.35-.93-.94-2.63-1.88-5.26-2.82-7.89-.01-.04-.02-.08-.03-.11l.05-.03h0Z"/><path class="b" d="M85.01,64.62c3,.39,5.98,.38,8.97-.03-.31,.88-2.58,2.24-4,2.35-2.12,.17-3.66-.84-4.97-2.32h0Z"/><path class="b" d="M89.54,44c.63,1.77,1.27,3.54,1.91,5.34h-3.88c.64-1.8,1.27-3.57,1.91-5.34h.07Z"/><path class="b" d="M105.91,56.11c-.79,1.41-2.97,2.8-5.22,2.71v-2.71h5.22Z"/><path class="b" d="M78.31,56.11v2.7c-2.12,.11-4.34-1.19-5.23-2.7h5.23Z"/><path class="b" d="M79.71,58.68c0-.14-.02-.21-.02-.28,0-.81,0-1.62,0-2.42,0-.16,.05-.26,.19-.35,.4-.28,.8-.57,1.22-.88,.02,.08,.04,.14,.04,.19,0,1.01,0,2.01,0,3.02,0,.16-.05,.25-.2,.3-.4,.14-.8,.28-1.23,.43h0Z"/><path class="b" d="M97.92,54.75c.45,.33,.88,.63,1.3,.94,.04,.03,.08,.1,.08,.14,0,.92,0,1.84,0,2.85-.48-.18-.92-.33-1.35-.5-.04-.02-.07-.11-.07-.17,0-1.05,0-2.1,0-3.15,0-.02,.01-.05,.03-.12h0Z"/><path class="b" d="M106.97,52.07h-.56c-.81,0-1.61,0-2.42,0-.13,0-.28-.07-.38-.15-.25-.21-.49-.44-.73-.66l.03-.07c.25-.03,.5-.06,.75-.09,.91-.11,1.82-.22,2.73-.33,.18-.02,.27,.03,.31,.2,.08,.35,.17,.71,.27,1.12h0Z"/><path class="b" d="M76.11,51.25c-.27,.25-.54,.5-.82,.75-.04,.04-.11,.06-.16,.06-1,0-2.01,0-3.04,0,.01-.45,.12-.87,.29-1.26,.02-.04,.17-.06,.25-.05,.76,.09,1.52,.18,2.28,.27l1.17,.14,.05,.08h0Z"/><path class="b" d="M89.5,70.36c-.44-.75-.85-1.44-1.31-2.21,.89,.16,1.72,.18,2.62-.02-.45,.77-.86,1.47-1.31,2.22h0Z"/></g><g><path class="c" d="M64.04,32.99H29.96c-.32,0-.59,.06-.59,.12h0c0,.07,.26,.13,.59,.13h34.08c.32,0,.59-.06,.59-.12h0c0-.07-.26-.13-.59-.13Z"/><rect class="c" x="31.38" y="35.99" width="17.25" height=".25" rx=".12" ry=".12"/></g><g><path class="c" d="M64.04,49.24H29.96c-.32,0-.59-.06-.59-.12h0c0-.07,.26-.13,.59-.13h34.08c.32,0,.59,.06,.59,.12h0c0,.07-.26,.13-.59,.13Z"/><path class="c" d="M48.5,52.24H31.5c-.07,0-.12-.06-.12-.12s.06-.12,.12-.12h17c.07,0,.12,.06,.12,.12s-.06,.12-.12,.12Z"/></g><g><path class="c" d="M64.04,68.24H29.96c-.32,0-.59-.06-.59-.12h0c0-.07,.26-.13,.59-.13h34.08c.32,0,.59,.06,.59,.12h0c0,.07-.26,.13-.59,.13Z"/><rect class="c" x="31.38" y="70.99" width="17.25" height=".25" rx=".12" ry=".12"/></g><g><path class="c" d="M64.04,84.24H29.96c-.32,0-.59-.06-.59-.12h0c0-.07,.26-.13,.59-.13h34.08c.32,0,.59,.06,.59,.12h0c0,.07-.26,.13-.59,.13Z"/><rect class="c" x="30.87" y="86.99" width="17.25" height=".25" rx=".12" ry=".12"/></g></svg>