<svg width="75" height="58" viewBox="0 0 75 58" fill="none" xmlns="http://www.w3.org/2000/svg">
<path d="M29.4207 27.59H24.0513C23.8911 27.59 23.7275 27.59 23.5673 27.575C23.3559 27.5569 23.1888 27.3854 23.182 27.1958C23.1752 27.0122 23.3457 26.8256 23.5468 26.7986C23.6116 26.7895 23.6763 26.7865 23.7377 26.7835H34.7627C34.9093 26.7835 35.0525 26.7835 35.1991 26.7895C35.2979 26.7895 35.3866 26.8226 35.4684 26.8738C35.6252 26.9731 35.69 27.1145 35.6457 27.2831C35.6047 27.4365 35.4786 27.5208 35.315 27.5659C35.2536 27.584 35.1888 27.587 35.1241 27.587C34.9945 27.587 34.865 27.587 34.7388 27.587H29.4207V27.59Z" fill="black"/>
<path d="M56.85 54.5322V56.2401C56.85 56.2642 56.8227 56.2883 56.8057 56.3244C56.7716 56.3365 56.7273 56.3606 56.683 56.3606C56.5364 56.3666 56.3932 56.3666 56.2466 56.3666H9.34059C9.17695 56.3666 9.01673 56.3636 8.8565 56.3576C8.79172 56.3576 8.73377 56.3034 8.72695 56.2522C8.72014 56.21 8.71331 56.1678 8.71331 56.1256V55.7853C8.71672 39.7095 8.71672 23.6338 8.71672 7.55809C8.71672 7.40146 8.72013 7.24483 8.72013 7.11531C8.77468 7.03699 8.83263 7.01892 8.90082 7.01892C9.04741 7.01591 9.19059 7.01591 9.33718 7.01591H35.8362C40.2067 7.07314 44.5738 7.02795 48.9409 7.04C51.3409 7.04603 53.7443 7.04 56.1443 7.04H56.6421C56.7511 7.09422 56.7784 7.16049 56.7784 7.23278C56.7818 7.3623 56.7818 7.48881 56.7818 7.61833V25.6459C56.7818 25.9321 56.7886 26.0797 56.7239 26.155C56.7682 26.164 56.8023 26.1791 56.8432 26.1911C56.8773 26.1911 56.9114 26.1881 56.9455 26.1881C57.0614 26.1881 57.1739 26.1971 57.2761 26.2152C57.3136 26.2152 57.3477 26.2092 57.3852 26.2092C57.4841 26.2092 57.5761 26.2182 57.6648 26.2303C57.6818 26.2303 57.6989 26.2303 57.7159 26.2273C57.7909 26.2092 57.8727 26.1941 57.9546 26.1851C57.9171 26.161 57.8898 26.1218 57.8898 26.0887C57.883 25.9742 57.8761 25.8628 57.8761 25.7483V7.29604C57.8761 7.15447 57.8796 7.0129 57.8966 6.87133C57.9136 6.7418 57.8966 6.61831 57.8659 6.4918C57.8352 6.35625 57.7398 6.26589 57.6 6.20866C57.4977 6.16649 57.3921 6.13636 57.2761 6.13636H50.8909C50.7306 6.13636 50.567 6.13335 50.4068 6.13034C50.342 6.12733 50.2806 6.10926 50.2363 6.05504C50.1886 5.91949 50.209 5.77792 50.209 5.63635V3.58509C50.209 3.45858 50.2193 3.32605 50.192 3.20255C50.1545 3.03387 50.1579 2.86519 50.1579 2.6935V0.771765C50.1579 0.660316 50.1613 0.545856 50.1511 0.431395C50.134 0.208498 49.9397 0.0307818 49.6875 0.00969694C49.5409 -0.00235157 49.3977 0.000660921 49.2511 0.000660921H0.65758C0.15644 -0.0143997 -0.00719702 0.229581 0.00303032 0.563927C0.0132577 0.934419 0.00303032 1.30491 0.00303032 1.6754V50.1165C0.00303032 50.258 -0.0037879 50.4026 0.00303032 50.5442C0.0166668 50.8243 0.19394 50.9839 0.521214 51.002C0.667806 51.008 0.810989 51.005 0.957581 51.005H7.0974C7.24399 51.005 7.38717 51.008 7.53376 51.0111C7.56444 51.0111 7.59853 51.0171 7.62581 51.0321C7.64967 51.0442 7.68717 51.0713 7.68717 51.0924C7.6974 51.234 7.70763 51.3755 7.70763 51.5171V56.4299C7.70763 56.5594 7.70763 56.6889 7.71445 56.8154C7.72126 56.9209 7.78263 57.0022 7.87468 57.0684C7.96672 57.1347 8.06899 57.1739 8.1849 57.1739C8.34513 57.1769 8.50877 57.1769 8.66899 57.1769H56.8295C56.9898 57.1769 57.1534 57.1799 57.3136 57.1769C57.3784 57.1769 57.4432 57.1678 57.5046 57.1558C57.6784 57.1166 57.8182 56.9781 57.8318 56.8214C57.8421 56.71 57.8421 56.5955 57.8421 56.4811V54.6316C57.7432 54.6467 57.6443 54.6557 57.5352 54.6557C57.2761 54.6557 57.0477 54.6136 56.85 54.5383V54.5322ZM8.27013 6.18456C8.20536 6.18456 8.14058 6.1936 8.07922 6.20564C7.90535 6.23577 7.6974 6.37432 7.6974 6.5912C7.70081 6.74783 7.6974 6.90446 7.6974 7.06109V50.0532C7.64626 50.1405 7.58831 50.1616 7.52353 50.1677C7.45876 50.1737 7.39399 50.1737 7.32922 50.1737H4.81329C4.70079 50.1707 4.58829 50.1797 4.48601 50.1225C4.47238 50.0773 4.45192 50.0351 4.45192 49.996C4.45192 49.8393 4.45192 49.6827 4.45192 49.5261V22.3537C4.45192 22.182 4.44511 22.0133 4.44511 21.8416C4.4417 21.6217 4.12806 21.4048 3.85192 21.4651C3.60305 21.5193 3.47351 21.6609 3.46328 21.8928V50.0592C3.40873 50.1406 3.35078 50.1646 3.28601 50.1677C3.20419 50.1737 3.12578 50.1737 3.04396 50.1737H1.40077C1.30531 50.1737 1.20645 50.1707 1.1144 50.1526C1.0769 50.1436 1.03599 50.1014 1.01894 50.0683C1.0019 50.0321 1.0019 49.9839 1.0019 49.9417V1.44949C1.0019 1.29286 1.00531 1.13623 1.01213 0.979603C1.01554 0.907312 1.08372 0.847069 1.16554 0.841045C1.21326 0.838033 1.26099 0.835019 1.30872 0.835019H48.409C48.5693 0.835019 48.7329 0.83502 48.8931 0.838032C48.9511 0.838032 49.0124 0.853092 49.1113 0.86514C49.1215 1.01273 49.1318 1.1272 49.1318 1.23865C49.1352 1.76577 49.159 2.29289 49.1318 2.82001C49.0772 3.82908 49.1147 4.84115 49.0977 5.85021C49.0943 5.9225 49.084 5.99178 49.0806 6.046C49.0261 6.11227 48.9647 6.13034 48.9 6.13034C48.7397 6.13637 48.5761 6.13636 48.4159 6.13636H38.5976C38.3215 6.13636 38.0487 6.13637 37.776 6.1695C37.6021 6.19058 37.4215 6.18155 37.2442 6.18155H8.80536C8.62809 6.18155 8.45082 6.18155 8.27354 6.18456H8.27013Z" fill="black"/>
<path d="M49.0738 0.867343C49.0807 1.01781 49.0943 1.12916 49.0943 1.24051C49.0943 1.76715 49.1182 2.29379 49.0943 2.82043C49.0397 3.82857 49.0773 4.83973 49.0602 5.84787C49.0602 5.91708 49.05 5.98931 49.0432 6.04348C48.9886 6.10968 48.9307 6.12774 48.8625 6.12774C48.7023 6.13075 48.5386 6.13376 48.3784 6.13376H38.5602C38.2875 6.13376 38.0148 6.13376 37.7386 6.16686C37.5648 6.18793 37.3841 6.1789 37.2068 6.1789H8.76816C8.59089 6.1789 8.41362 6.1789 8.23634 6.18191C8.17157 6.18191 8.1068 6.19094 8.04544 6.20298C7.87157 6.23608 7.6602 6.37451 7.66361 6.58818V50.0105C7.61248 50.0948 7.55452 50.1189 7.48975 50.1249C7.42498 50.1309 7.36021 50.1309 7.29543 50.1309H4.77952C4.67043 50.1309 4.55452 50.1399 4.45225 50.0797C4.43861 50.0316 4.41816 49.9925 4.41816 49.9533C4.41475 49.7969 4.41475 49.6404 4.41475 49.4839V22.3363C4.41475 22.1647 4.41475 21.9962 4.40793 21.8247C4.40452 21.605 4.09089 21.3883 3.81475 21.4485C3.56589 21.5027 3.43293 21.6441 3.42612 21.8758C3.4193 22.0173 3.42612 22.1617 3.42612 22.3032V50.0165C3.37498 50.1008 3.31702 50.1219 3.24884 50.1249C3.16702 50.1279 3.08861 50.1309 3.0068 50.1309H1.36361C1.26816 50.1309 1.1693 50.1249 1.07725 50.1098C1.03975 50.1038 0.998841 50.0617 0.981796 50.0256C0.961341 49.9894 0.964752 49.9413 0.964752 49.8992V1.45116C0.964752 1.29468 0.968161 1.13819 0.974979 0.981699C0.974979 0.906464 1.04657 0.849286 1.12839 0.843268C1.17611 0.840258 1.22384 0.83725 1.27157 0.83725H48.3716C48.5318 0.83725 48.6954 0.83725 48.8557 0.84026C48.917 0.84026 48.9784 0.855306 49.0841 0.870353H49.0738V0.867343Z" fill="white"/>
<path d="M21.1567 46.0171C21.2897 46.0291 21.3613 45.9599 21.4465 45.9238C21.5351 45.8877 21.6204 45.8485 21.7056 45.8094C21.8795 45.7312 22.0465 45.7432 22.2136 45.8275C22.4761 45.9599 22.5067 46.327 22.2613 46.4775C22.142 46.5497 22.0124 46.6069 21.8863 46.6701C21.6476 46.7875 21.3988 46.8898 21.2011 47.0011C21.1056 47.1004 21.1192 47.1877 21.1192 47.272V50.5552C21.1192 50.6545 21.1192 50.7568 21.1022 50.8531C21.0681 51.0187 20.9556 51.136 20.7647 51.1812C20.6863 51.1992 20.6079 51.2082 20.5261 51.2113C20.4136 51.2173 20.3011 51.2113 20.1886 51.2113H14.0522C13.9226 51.2113 13.7931 51.2113 13.667 51.2083C13.5511 51.2083 13.4488 51.1691 13.3499 51.112C13.2511 51.0548 13.1795 50.9765 13.1692 50.8712C13.1522 50.7147 13.142 50.5582 13.142 50.4047V45.3731C13.142 45.2738 13.142 45.1744 13.1556 45.0751C13.1795 44.8554 13.3329 44.708 13.5783 44.6719C13.6738 44.6568 13.7692 44.6598 13.8681 44.6568H20.2431C20.3863 44.6568 20.5329 44.6568 20.6761 44.6719C20.9283 44.699 21.0886 44.8434 21.109 45.0631C21.1226 45.2045 21.1158 45.346 21.1192 45.4904C21.1192 45.6469 21.1261 45.8034 21.1295 45.9599C21.1295 45.9719 21.1431 45.984 21.1602 46.0141L21.1567 46.0171ZM20.0624 46.5858C20.1204 46.2458 20.1033 45.9358 20.0829 45.6228C20.0829 45.5657 20.0215 45.5115 19.9636 45.5085C19.8204 45.5025 19.6738 45.4934 19.5306 45.4934H14.6965C14.567 45.4934 14.4374 45.4934 14.3113 45.5025C14.267 45.5025 14.2261 45.5326 14.1817 45.5506C14.1408 45.6951 14.1545 45.8365 14.1545 45.9779V49.9022C14.1545 50.0015 14.1545 50.1008 14.1545 50.2001C14.1545 50.2573 14.1715 50.3115 14.2329 50.3536C14.3829 50.3957 14.5431 50.3777 14.7033 50.3777H19.5374C19.667 50.3777 19.7965 50.3777 19.9226 50.3686C19.967 50.3686 20.0079 50.3385 20.0658 50.3205C20.0761 50.2392 20.0931 50.155 20.0931 50.0707V47.8107C20.0931 47.7685 20.0863 47.7264 20.0829 47.6843C20.0761 47.597 20.0113 47.5669 19.9158 47.606C19.8136 47.6482 19.7147 47.6933 19.6158 47.7414C19.0636 48.0033 18.5079 48.2651 17.9556 48.5269C17.8567 48.575 17.7579 48.6262 17.6522 48.6533C17.4545 48.7044 17.267 48.6804 17.1204 48.5389C17.0658 48.4878 17.0113 48.4366 16.9601 48.3794C16.609 47.9732 16.2579 47.5639 15.9136 47.1546C15.8556 47.0884 15.8113 47.0102 15.7772 46.9319C15.7056 46.7574 15.8113 46.5257 15.9954 46.4595C16.2101 46.3812 16.4624 46.3993 16.6158 46.5618C16.7079 46.6611 16.7999 46.7604 16.8886 46.8627C17.1033 47.1095 17.3181 47.3593 17.5329 47.609C17.5738 47.6572 17.6181 47.6933 17.7136 47.6993C18.4738 47.3382 19.2511 46.971 20.0624 46.5858V46.5858Z" fill="black"/>
<path d="M21.1704 24.9514C21.3715 24.8882 21.5317 24.7949 21.7056 24.7227C21.8795 24.6475 22.0465 24.6565 22.2136 24.7408C22.4795 24.8732 22.5067 25.2403 22.2613 25.3908C22.1556 25.454 22.0397 25.5082 21.9272 25.5623C21.7295 25.6586 21.5317 25.7489 21.334 25.8452C21.2624 25.8783 21.1874 25.9054 21.1363 25.9987C21.0988 26.113 21.1158 26.2575 21.1158 26.3989V28.8275C21.1158 28.9419 21.1158 29.0562 21.1022 29.1676C21.0749 29.3812 20.8976 29.5257 20.6522 29.5437C20.5397 29.5498 20.4272 29.5498 20.3147 29.5498H13.9397C13.8272 29.5498 13.7147 29.5498 13.6022 29.5437C13.3601 29.5287 13.1795 29.3752 13.1522 29.1676C13.1386 29.0683 13.1385 28.9689 13.1385 28.8696V23.7116C13.1385 23.5972 13.1454 23.4828 13.159 23.3715C13.1829 23.197 13.3431 23.0615 13.5408 23.0375C13.6056 23.0284 13.6704 23.0254 13.7317 23.0254H20.2533C20.4136 23.0254 20.5772 23.0254 20.734 23.0435C20.9113 23.0615 21.0272 23.1608 21.0749 23.3083C21.1056 23.4016 21.1124 23.5039 21.1158 23.6032C21.1158 23.9583 21.1158 24.3134 21.1158 24.6685C21.1158 24.7528 21.0988 24.8401 21.1738 24.9574V24.9514H21.1704ZM14.2022 23.8229C14.134 23.9704 14.1442 24.0817 14.1442 24.1931V28.3761C14.1442 28.4483 14.1442 28.5175 14.1511 28.5898C14.1511 28.665 14.2192 28.7252 14.3011 28.7282C14.3658 28.7282 14.4306 28.7372 14.4954 28.7372H19.7181C19.7999 28.7372 19.8783 28.7282 19.9601 28.7252C20.0045 28.7252 20.0795 28.6469 20.0829 28.6048C20.0829 28.5326 20.0965 28.4634 20.0965 28.3911V26.7691C20.0965 26.6999 20.0897 26.6276 20.0761 26.5584C20.0761 26.5374 20.0386 26.5193 20.0147 26.4982C19.8817 26.5073 19.776 26.5765 19.6635 26.6276C19.0942 26.8955 18.5283 27.1633 17.959 27.4312C17.8601 27.4793 17.7613 27.5335 17.6556 27.5606C17.4579 27.6117 17.2704 27.5906 17.1204 27.4492C17.0658 27.398 17.0079 27.3469 16.9601 27.2897C16.609 26.8834 16.2613 26.4742 15.9135 26.0649C15.8556 25.9987 15.8079 25.9204 15.7772 25.8422C15.6817 25.6135 15.859 25.3667 16.1283 25.3336C16.3363 25.3095 16.5136 25.3487 16.6465 25.4991C16.7249 25.5894 16.8067 25.6767 16.8851 25.767C17.0999 26.0167 17.3147 26.2635 17.5295 26.5133C17.5704 26.5614 17.6147 26.5976 17.6863 26.6006C18.4567 26.2755 19.7726 25.6406 20.0692 25.445C20.0761 25.3878 20.0965 25.3186 20.0965 25.2494V24.0968C20.0965 24.0396 20.0863 23.9854 20.0795 23.9282C20.0726 23.8771 20.0113 23.8289 19.9465 23.8259C19.834 23.8259 19.7215 23.8169 19.609 23.8169H14.209L14.2022 23.8229V23.8229Z" fill="black"/>
<path d="M17.1205 40.3775H13.9807C13.8512 40.3775 13.7216 40.3775 13.5955 40.3715C13.4625 40.3625 13.35 40.3053 13.2614 40.218C13.2205 40.1789 13.183 40.1247 13.1693 40.0705C13.1489 39.9592 13.1353 39.8448 13.1353 39.7335V34.4912C13.1353 34.3918 13.1421 34.2925 13.1557 34.1932C13.1762 34.0367 13.2853 33.9344 13.4455 33.8803C13.5205 33.8562 13.5989 33.8411 13.6807 33.8351C13.7932 33.8261 13.9057 33.8291 14.0182 33.8291H20.2466C20.4068 33.8291 20.5671 33.8351 20.7273 33.8562C20.9387 33.8863 21.0682 34.0127 21.1023 34.1992C21.1159 34.2685 21.1193 34.3407 21.1193 34.4099V39.7786C21.1193 39.8509 21.1193 39.9201 21.1057 39.9923C21.075 40.1849 20.9148 40.3354 20.6966 40.3594C20.5705 40.3745 20.4409 40.3715 20.3114 40.3715H17.1239V40.3775H17.1205ZM14.2193 39.5289C14.3284 39.5349 14.4409 39.5499 14.55 39.5499H19.6671C19.7625 39.5499 19.858 39.5409 19.9568 39.5319C20.0114 39.5319 20.0728 39.4717 20.0762 39.4175C20.083 39.2911 20.0932 39.1617 20.0932 39.0353V34.9034C20.0932 34.8613 20.083 34.8192 20.0762 34.7771C20.0693 34.7259 20.008 34.6747 19.9466 34.6717C19.8512 34.6657 19.7523 34.6627 19.6568 34.6627H14.5398C14.458 34.6627 14.3796 34.6627 14.2978 34.6717C14.2534 34.6777 14.2125 34.7018 14.175 34.7169C14.1273 35.087 14.1103 37.964 14.1443 39.2821C14.1443 39.3513 14.1375 39.4235 14.2159 39.5319L14.2193 39.5289Z" fill="black"/>
<path d="M17.1 18.71H13.9568C13.8273 18.71 13.6978 18.71 13.5716 18.704C13.3568 18.6889 13.1796 18.5384 13.1523 18.3488C13.1387 18.2495 13.1353 18.1502 13.1353 18.0509V12.8447C13.1353 12.7454 13.1353 12.6461 13.1523 12.5468C13.1796 12.3542 13.35 12.2097 13.575 12.1947C13.7182 12.1856 13.8648 12.1856 14.0114 12.1856H20.2978C20.4273 12.1856 20.5568 12.1856 20.683 12.1947C20.8909 12.2097 21.0443 12.3301 21.0887 12.5076C21.1023 12.5618 21.1091 12.619 21.1125 12.6762C21.1125 12.7604 21.1125 12.8477 21.1125 12.932V17.9667C21.1125 18.066 21.1125 18.1653 21.1125 18.2646C21.1125 18.3218 21.0955 18.3759 21.075 18.4301C21.0205 18.5836 20.8705 18.6889 20.6796 18.6979C20.55 18.704 20.4205 18.704 20.2943 18.704H17.1034V18.71H17.1ZM14.2125 13.0012C14.1478 13.1125 14.1512 13.1968 14.1512 13.2811V17.7139C14.158 17.8463 14.2125 17.9005 14.3489 17.9035H19.858C19.8887 17.9035 19.9228 17.8974 19.9534 17.8944C20.0046 17.8884 20.0762 17.8282 20.083 17.7831C20.0898 17.6988 20.1 17.6146 20.1 17.5273V13.3924C20.1 13.3081 20.1 13.2209 20.0898 13.1366C20.0898 13.0614 20.0182 13.0012 19.9398 12.9982C19.8273 12.9982 19.7148 12.9891 19.6023 12.9891H14.625C14.4955 12.9891 14.3693 12.9952 14.2125 12.9982V13.0012Z" fill="black"/>
<path d="M32.9318 35.6799C34.9943 35.6799 37.0534 35.6889 39.1159 35.6738C40.0022 35.6678 40.8852 35.6528 41.7715 35.6528C41.9011 35.6528 42.0306 35.6528 42.1568 35.6648C42.3511 35.6859 42.5761 35.8935 42.5965 36.0711C42.6034 36.1252 42.5863 36.1854 42.559 36.2336C42.4465 36.4292 42.2727 36.5285 42.017 36.5195C41.6318 36.5074 41.2431 36.5074 40.8579 36.5074H24.3818C24.2215 36.5074 24.0579 36.5074 23.8977 36.5074C23.8022 36.5074 23.7068 36.4924 23.6113 36.4743C23.417 36.4352 23.2704 36.2847 23.2602 36.1132C23.25 35.9326 23.4068 35.7461 23.6079 35.7009C23.6693 35.6889 23.734 35.6799 23.7988 35.6799C23.942 35.6799 24.0886 35.6799 24.2352 35.6799H32.9318V35.6799Z" fill="black"/>
<path d="M32.8841 14.8821C32.3045 14.8821 31.725 14.8911 31.1455 14.8821C28.7625 14.8429 26.3795 14.855 23.9932 14.852C23.8807 14.852 23.7648 14.852 23.6557 14.8369C23.4682 14.8068 23.3386 14.7075 23.2773 14.542C23.2159 14.3735 23.3318 14.1417 23.5193 14.0816C23.625 14.0485 23.7375 14.0304 23.8466 14.0214C23.9761 14.0123 24.1057 14.0214 24.2318 14.0214H29.4989C29.7409 14.0214 29.9829 14.0274 30.2216 13.9943C30.3477 13.9762 30.4773 13.9853 30.6068 13.9853H41.6727C41.8023 13.9853 41.9318 13.9853 42.0579 13.9913C42.3068 14.0123 42.4704 14.1417 42.5693 14.3343C42.6034 14.4006 42.6034 14.4758 42.5693 14.542C42.4602 14.7527 42.2898 14.8851 42.0102 14.8821H32.8841Z" fill="black"/>
<path d="M32.7443 24.816H41.5773C41.7375 24.816 41.9011 24.816 42.0613 24.822C42.3102 24.834 42.5182 24.9845 42.5897 25.1982C42.6068 25.2493 42.6068 25.3155 42.5829 25.3637C42.4807 25.5773 42.3034 25.7068 42.0307 25.7158C41.9182 25.7158 41.8057 25.7158 41.6932 25.7158H30.0954C29.9182 25.7158 29.7409 25.6977 29.567 25.6917C29.4068 25.6857 29.2466 25.6827 29.0829 25.6827H24.2011C24.0716 25.6827 23.942 25.6887 23.8159 25.6827C23.7204 25.6767 23.625 25.6586 23.5363 25.6255C23.3727 25.5683 23.2841 25.448 23.2704 25.2975C23.2534 25.144 23.3318 25.0176 23.4818 24.9394C23.5636 24.8972 23.6591 24.8701 23.7545 24.8611C23.8977 24.8461 24.0443 24.8521 24.1875 24.8521C25.6704 24.8521 27.1534 24.8701 28.6329 24.8461C30.0647 24.822 31.5 24.828 32.7511 24.822H32.7443V24.816Z" fill="black"/>
<path d="M32.9045 46.5136H41.6011C41.7614 46.5136 41.9216 46.5136 42.0852 46.5196C42.2045 46.5196 42.3034 46.5648 42.3886 46.634C42.5114 46.7393 42.5829 46.8657 42.525 47.0162C42.4636 47.1757 42.3409 47.281 42.1466 47.3081C42.0818 47.3171 42.017 47.3201 41.9557 47.3201H24.225C24.0307 47.3201 23.8398 47.3201 23.6454 47.3051C23.5091 47.296 23.4102 47.2268 23.3352 47.1245C23.1579 46.8868 23.3454 46.5738 23.6352 46.5287C23.6966 46.5196 23.7648 46.5136 23.8261 46.5136H32.9045V46.5136Z" fill="black"/>
<path d="M29.4887 16.0226H34.9023C35.0318 16.0226 35.1614 16.0226 35.2875 16.0286C35.4068 16.0286 35.5057 16.0798 35.5943 16.14C35.833 16.3055 35.8262 16.6546 35.5773 16.8051C35.4682 16.8713 35.3523 16.9164 35.2193 16.9194C35.1068 16.9194 34.9943 16.9194 34.8818 16.9194H29.5159C29.3387 16.9194 29.1614 16.9014 28.9875 16.8953C28.8273 16.8893 28.6671 16.8833 28.5034 16.8833H24.1057C23.9284 16.8833 23.7512 16.8953 23.5773 16.8412C23.4989 16.8171 23.4307 16.784 23.3762 16.7298C23.1273 16.477 23.308 16.155 23.5943 16.0798C23.6557 16.0647 23.7205 16.0557 23.7853 16.0527C23.9148 16.0467 24.0443 16.0527 24.1705 16.0527H28.5205C28.8409 16.0527 29.1648 16.0437 29.4853 16.0377V16.0256H29.4887V16.0226Z" fill="black"/>
<path d="M29.4989 38.5237H24.1296C23.9694 38.5237 23.8057 38.5237 23.6455 38.5087C23.4341 38.4906 23.2671 38.3191 23.2603 38.1295C23.2535 37.9459 23.4239 37.7594 23.625 37.7323C23.6898 37.7232 23.7546 37.7202 23.816 37.7172H34.841C34.9875 37.7172 35.1307 37.7172 35.2773 37.7232C35.3762 37.7232 35.4648 37.7563 35.5466 37.8075C35.7035 37.9068 35.7682 38.0483 35.7239 38.2168C35.683 38.3703 35.5569 38.4545 35.3932 38.4997C35.3319 38.5177 35.2671 38.5207 35.2023 38.5207C35.0728 38.5207 34.9432 38.5207 34.8171 38.5207H29.4989V38.5237Z" fill="black"/>
<path d="M29.5398 48.545H34.8579C35.0045 48.545 35.1477 48.545 35.2943 48.554C35.4102 48.56 35.5091 48.6021 35.5977 48.6713C35.7852 48.8218 35.7852 49.0957 35.5875 49.2341C35.4989 49.2973 35.4 49.3454 35.2807 49.3485C35.1682 49.3515 35.0557 49.3545 34.9432 49.3545H24.0614C23.9318 49.3545 23.8023 49.3545 23.6761 49.3454C23.4818 49.3274 23.3523 49.2311 23.2841 49.0686C23.2227 48.9181 23.2704 48.7887 23.3864 48.6744C23.4409 48.6202 23.5091 48.575 23.5909 48.569C23.7511 48.557 23.9114 48.545 24.0716 48.545H29.5398V48.545Z" fill="black"/>
<path d="M20.0625 46.5829C19.2512 46.9681 18.4739 47.3352 17.7137 47.6964C17.6182 47.6903 17.5705 47.6542 17.533 47.6061C17.3182 47.3563 17.1069 47.1065 16.8887 46.8597C16.8 46.7574 16.7114 46.6581 16.616 46.5588C16.4625 46.3963 16.2103 46.3782 15.9955 46.4565C15.8114 46.5227 15.7057 46.7514 15.7773 46.929C15.8114 47.0072 15.8557 47.0855 15.9137 47.1517C16.2614 47.5609 16.6091 47.9702 16.9603 48.3765C17.008 48.4337 17.0659 48.4848 17.1205 48.536C17.2705 48.6774 17.4546 48.7015 17.6523 48.6503C17.758 48.6232 17.8569 48.5691 17.9557 48.5239C18.508 48.2621 19.0637 48.0003 19.6159 47.7385C19.7148 47.6903 19.8171 47.6482 19.9159 47.6031C20.0114 47.5639 20.0728 47.594 20.083 47.6813C20.083 47.7234 20.0932 47.7656 20.0932 47.8077V50.0677C20.0932 50.152 20.0762 50.2333 20.0659 50.3175C20.008 50.3386 19.9671 50.3627 19.9228 50.3657C19.7932 50.3747 19.6671 50.3747 19.5375 50.3747H14.7035C14.5432 50.3747 14.383 50.3928 14.233 50.3506C14.1682 50.3085 14.1546 50.2543 14.1546 50.1971C14.1546 50.0978 14.1546 49.9985 14.1546 49.8992V45.975C14.1546 45.8335 14.141 45.6921 14.1819 45.5477C14.2262 45.5296 14.2671 45.5025 14.3114 45.4995C14.4409 45.4905 14.5671 45.4905 14.6966 45.4905H19.5307C19.6739 45.4905 19.8205 45.4965 19.9637 45.5055C20.0216 45.5055 20.0796 45.5627 20.083 45.6199C20.1034 45.9299 20.1205 46.2428 20.0625 46.5829V46.5829Z" fill="white"/>
<path d="M14.2091 23.8259H19.6091C19.7216 23.8259 19.8341 23.8259 19.9466 23.835C20.0113 23.835 20.0727 23.8861 20.0795 23.9373C20.0863 23.9945 20.0966 24.0486 20.0966 24.1058V25.2584C20.0966 25.3276 20.0795 25.3968 20.0693 25.454C19.7727 25.6466 18.4568 26.2846 17.6863 26.6096C17.6147 26.6096 17.5704 26.5675 17.5295 26.5223C17.3147 26.2726 17.1 26.0228 16.8852 25.776C16.8068 25.6857 16.7284 25.5954 16.6466 25.5082C16.5136 25.3577 16.3363 25.3156 16.1284 25.3427C15.8556 25.3758 15.6818 25.6225 15.7772 25.8512C15.8113 25.9295 15.8591 26.0077 15.9136 26.0739C16.2613 26.4832 16.6091 26.8925 16.9602 27.2988C17.0079 27.3559 17.0659 27.4071 17.1204 27.4583C17.2704 27.5997 17.4579 27.6208 17.6556 27.5696C17.7613 27.5425 17.8602 27.4883 17.9591 27.4402C18.5284 27.1724 19.0943 26.9045 19.6636 26.6367C19.7761 26.5825 19.8818 26.5163 20.0147 26.5073C20.0386 26.5284 20.0727 26.5464 20.0761 26.5675C20.0897 26.6367 20.0966 26.7089 20.0966 26.7781V28.4002C20.0966 28.4724 20.0897 28.5416 20.0829 28.6139C20.0829 28.656 20.0045 28.7312 19.9602 28.7342C19.8784 28.7402 19.8 28.7463 19.7181 28.7463H14.4954C14.4306 28.7463 14.3659 28.7463 14.3011 28.7372C14.2193 28.7312 14.1545 28.674 14.1511 28.5988C14.1511 28.5266 14.1443 28.4574 14.1443 28.3851V24.2021C14.1443 24.0908 14.1341 23.9764 14.2022 23.8319L14.2091 23.8259V23.8259Z" fill="white"/>
<path d="M14.2227 39.5289C14.1443 39.4205 14.1511 39.3483 14.1511 39.2791C14.117 37.961 14.1341 35.084 14.1818 34.7139C14.2193 34.6988 14.2602 34.6717 14.3045 34.6687C14.383 34.6597 14.4648 34.6597 14.5466 34.6597H19.6636C19.7591 34.6597 19.8579 34.6657 19.9534 34.6687C20.0148 34.6687 20.0761 34.7229 20.083 34.7741C20.0898 34.8162 20.0966 34.8583 20.1 34.9004V39.0323C20.1 39.1587 20.0898 39.2881 20.083 39.4145C20.083 39.4687 20.0182 39.5259 19.9636 39.5289C19.8682 39.5349 19.7727 39.5469 19.6739 39.5469H14.5568C14.4477 39.5469 14.3352 39.5349 14.2261 39.5259L14.2227 39.5289Z" fill="white"/>
<path d="M14.2125 13.0012C14.3659 13.0012 14.4954 12.9921 14.625 12.9921H19.6023C19.7148 12.9921 19.8273 12.9921 19.9398 13.0012C20.0182 13.0012 20.0863 13.0674 20.0898 13.1396C20.0966 13.2239 20.1 13.3111 20.1 13.3954V17.5303C20.1 17.6145 20.0898 17.6988 20.0829 17.7861C20.0829 17.8342 20.0079 17.8944 19.9534 17.8974C19.9227 17.8974 19.8886 17.9064 19.8579 17.9064H14.3489C14.2125 17.9064 14.1579 17.8493 14.1511 17.7169V13.284C14.1511 13.1998 14.1511 13.1155 14.2125 13.0042V13.0012Z" fill="white"/>
<ellipse cx="57.4432" cy="40.1752" rx="17.5568" ry="14.5955" fill="#FEE168"/>
<path d="M65.9608 36.3107C65.9616 36.3101 69.0047 33.9399 69.0047 33.9399C69.7257 33.3782 69.7257 32.4642 69.0047 31.9026L67.6097 30.816C66.8885 30.2544 65.7152 30.2542 64.994 30.816L64.2964 31.3594C64.1519 31.4719 64.1519 31.6543 64.2964 31.7668C64.4409 31.8793 64.6751 31.8793 64.8195 31.7668L65.5171 31.2235C65.9498 30.8865 66.6538 30.8865 67.0865 31.2235L68.4815 32.31C68.9141 32.647 68.9141 33.1954 68.4815 33.5324L66.9993 34.6869L63.7733 32.1742C63.6288 32.0617 63.3947 32.0617 63.2502 32.1742L61.951 33.1862C61.9501 33.1869 48.9133 43.3412 48.9133 43.3412C48.9125 43.3417 48.9119 43.3423 48.9112 43.343C48.9081 43.3454 48.9052 43.3481 48.9023 43.3506C48.8731 43.3755 48.8494 43.404 48.8328 43.4352L47.4088 46.1288C47.4084 46.1297 47.4079 46.1306 47.4074 46.1315L46.3915 48.0531C46.3347 48.1607 46.3664 48.2843 46.472 48.3666C46.5428 48.4217 46.6374 48.4509 46.7337 48.4509C46.7811 48.4509 46.8289 48.4438 46.8745 48.4293L49.3418 47.6379C49.3428 47.6376 49.3437 47.6373 49.3447 47.637L52.8033 46.5277C52.8436 46.5148 52.8803 46.4962 52.9123 46.4733C52.9154 46.4711 52.9186 46.469 52.9216 46.4668C52.9224 46.4662 52.9233 46.4657 52.9241 46.4651L65.9608 36.3107ZM52.7899 45.7545C52.6904 45.6222 52.5685 45.499 52.4267 45.3885C52.1367 45.1626 51.7849 45.0053 51.4122 44.9262L61.0787 37.397C61.2231 37.2845 61.2231 37.1021 61.0787 36.9895C60.9342 36.8771 60.7 36.8771 60.5555 36.9895L50.889 44.5187C50.7874 44.2283 50.5855 43.9544 50.2955 43.7285C50.1536 43.618 49.9954 43.5231 49.8255 43.4456L62.2121 33.7978L63.4327 34.7485L61.9505 35.9029C61.8061 36.0155 61.8061 36.1979 61.9505 36.3104C62.0228 36.3667 62.1175 36.3948 62.2121 36.3948C62.3068 36.3948 62.4015 36.3667 62.4737 36.3104L63.9559 35.1559L65.1766 36.1067L52.7899 45.7545ZM49.2911 47.031L48.1867 46.1708L49.3806 43.9125C49.523 43.97 49.6556 44.045 49.7723 44.1359C50.1219 44.4082 50.2839 44.7779 50.2055 45.1248C50.1846 45.2174 50.223 45.312 50.3083 45.3785C50.3935 45.4449 50.5151 45.4748 50.6339 45.4585C51.0794 45.3975 51.554 45.5237 51.9036 45.796C52.0203 45.8869 52.1166 45.9901 52.1904 46.1011L49.2911 47.031ZM63.5118 32.7854L66.4762 35.0944L65.6996 35.6992L62.7352 33.3902L63.5118 32.7854ZM47.8815 46.748L48.5499 47.2687L47.4136 47.6331L47.8815 46.748Z" fill="black"/>
</svg>
