<svg width="100%" height="100%" id="svg" viewBox="0 0 1440 600" xmlns="http://www.w3.org/2000/svg" class="transition duration-300 ease-in-out delay-150"><defs><linearGradient id="gradient" x1="3%" y1="67%" x2="97%" y2="33%"><stop offset="5%" stop-color="#fede55ff"></stop><stop offset="95%" stop-color="#fede55ff"></stop></linearGradient></defs><path d="M 0,600 C 0,600 0,300 0,300 C 64.74514736712295,295.7709705265754 129.4902947342459,291.5419410531508 179,290 C 228.5097052657541,288.4580589468492 262.78396843013934,289.6032063139721 306,272 C 349.21603156986066,254.39679368602788 401.3738315451967,218.04523369096063 466,240 C 530.6261684548033,261.95476630903937 607.7207053890739,342.2158589221853 664,362 C 720.2792946109261,381.7841410778147 755.7433468985079,341.0913306202984 806,326 C 856.2566531014921,310.9086693797016 921.3059070168948,321.41881859662107 971,330 C 1020.6940929831052,338.58118140337893 1055.033025033913,345.2333949932174 1102,358 C 1148.966974966087,370.7666050067826 1208.5619928474534,389.6476014305093 1267,381 C 1325.4380071525466,372.3523985694907 1382.7190035762733,336.17619928474534 1440,300 C 1440,300 1440,600 1440,600 Z" stroke="none" stroke-width="0" fill="url(#gradient)" class="transition-all duration-300 ease-in-out delay-150 path-0" transform="rotate(-180 720 300)"></path></svg>